<?xml version="1.0" encoding="UTF-8"?>
<!DOCTYPE svg PUBLIC "-//W3C//DTD SVG 1.1//EN" "http://www.w3.org/Graphics/SVG/1.1/DTD/svg11.dtd">
<!-- Creator: CorelDRAW X7 -->
<svg xmlns="http://www.w3.org/2000/svg" xml:space="preserve" width="500mm" height="282mm" version="1.1" style="shape-rendering:geometricPrecision; text-rendering:geometricPrecision; image-rendering:optimizeQuality; fill-rule:evenodd; clip-rule:evenodd"
viewBox="0 0 50000 28200"
 xmlns:xlink="http://www.w3.org/1999/xlink">
 <defs>
  <style type="text/css">
   <![CDATA[
    .str0 {stroke:#373435;stroke-width:20}
    .str2 {stroke:#00AFEF;stroke-width:7.62}
    .str1 {stroke:#96D1EA;stroke-width:7.62}
    .fil0 {fill:none}
    .fil1 {fill:#EDEDEE}
    .fil7 {fill:#00AFEF}
    .fil3 {fill:#0098DA}
    .fil4 {fill:#0098DA}
    .fil2 {fill:#244656}
    .fil5 {fill:#2E4B73}
    .fil6 {fill:#96D1EA}
   ]]>
  </style>
    <clipPath id="id0">
     <path d="M22474 23165l1303 0 0 1265 -1303 0 0 -1265z"/>
    </clipPath>
   <clipPath id="id1">
    <path d="M24663 24115l1241 0 0 510 -1241 0 0 -510z"/>
   </clipPath>
 </defs>
 <g id="Capa_x0020_1">
  <metadata id="CorelCorpID_0Corel-Layer"/>
  <rect class="fil0 str0" x="-11" y="-4" width="49986" height="28106"/>
  <g id="_2536636589216">
   <g style="clip-path:url(#id0)">
    <image x="22474" y="23165" width="1302" height="1265" xlink:href="back3_Images\back3_ImgID1.png"/>
   </g>
  </g>
  <path class="fil1" d="M23433 23656c125,18 310,-55 284,-259 -226,-125 -330,-100 -363,-106 -33,-7 -497,-72 -657,245 -161,317 16,314 18,375 2,62 -123,50 -133,250 -10,199 474,224 541,219 67,-5 535,-144 561,-331 27,-186 -127,-291 -238,-317 -112,-26 -138,-94 -13,-76z"/>
  <path class="fil2" d="M24028 23648c-10,-56 -12,-100 -69,-114 -166,-41 -118,214 -119,397 -1,219 147,138 166,114 37,-48 15,-251 20,-329l123 2c6,109 -49,366 99,359 133,-7 71,-174 89,-362l126 3c6,92 -26,301 39,343 44,29 110,12 131,-24 22,-40 12,-126 12,-175 0,-133 25,-251 -79,-309 -43,-25 -104,-28 -149,-2 -46,27 -54,63 -73,93l-8 10c-35,-67 -51,-124 -156,-122 -78,1 -132,59 -152,116zm836 72l175 -6 1 178 -170 0 -6 -172zm174 205c7,47 2,93 37,119 33,24 90,18 118,-4 51,-39 33,-195 33,-274 1,-281 -131,-235 -386,-232 -95,2 -152,55 -160,147 -5,60 -7,238 8,290 20,71 103,129 196,99 80,-25 117,-104 154,-145zm837 -209c70,-2 111,-22 108,-98 -3,-68 -46,-83 -111,-83 0,-79 13,-153 -47,-179 -67,-30 -126,10 -133,71 -13,113 0,312 -1,435 0,76 -3,134 47,172 72,56 297,81 275,-66 -10,-67 -70,-76 -141,-76l3 -176zm-423 0c48,-1 141,10 177,-14 84,-54 27,-216 -107,-159 -48,20 -46,61 -73,106 -30,-42 5,-95 -65,-114 -166,-47 -118,224 -119,396 -1,221 154,132 168,114 35,-44 13,-255 19,-329z"/>
  <path class="fil3" d="M23193 23777c124,11 334,51 347,195 42,-20 80,-57 120,-82 51,10 59,57 104,66 -30,-186 -225,-253 -387,-280 -35,-6 -150,-18 -191,-5l7 106z"/>
  <path class="fil3" d="M22524 24223c43,120 185,168 293,190 272,55 664,-32 836,-214 24,-26 63,-73 68,-107 13,1 26,2 40,4 17,2 28,7 44,5 -7,-15 -117,-131 -126,-134 -14,-5 -51,30 -65,43 -22,19 -54,36 -59,54 23,6 45,6 67,12 -7,25 -45,64 -64,83 -74,78 -250,142 -361,165 -61,13 -119,18 -176,21 -58,2 -179,-6 -238,-26 -64,-21 -156,-58 -182,-131 -37,-104 50,-174 102,-222l-15 -42c-19,6 -57,42 -72,55 -59,51 -126,149 -92,244z"/>
  <g style="clip-path:url(#id1)">
   <image x="24663" y="24115" width="1241" height="509" xlink:href="back3_Images\back3_ImgID2.png"/>
  </g>
  <g id="_2536636577120">
   <path class="fil4" d="M25170 24506c0,-94 -32,-140 195,-119 59,5 43,47 43,133 0,45 -119,34 -162,34 -35,0 -76,-16 -76,-48zm-60 -206c0,242 -31,306 201,306 178,0 157,-71 157,-186 0,-94 -142,-85 -222,-81 -43,2 -51,13 -76,28 0,-159 -21,-148 179,-148 66,0 59,32 59,67l60 0c0,-39 5,-79 -41,-102 -43,-21 -113,-18 -165,-18 -112,0 -152,36 -152,134z"/>
   <path class="fil4" d="M25571 24477l0 -177c0,-91 53,-86 141,-86 22,0 55,4 70,10 16,7 33,27 33,48l0 229c0,54 -72,58 -119,58 -83,0 -125,-7 -125,-82zm-60 -177c0,226 -31,306 190,306 98,0 174,-23 174,-119l0 -201c0,-39 -17,-73 -42,-92 -36,-28 -107,-28 -159,-28 -110,0 -163,37 -163,134z"/>
   <path class="fil4" d="M24709 24276c0,40 -7,34 59,34 0,-71 -10,-96 109,-96 11,0 80,5 89,7 46,12 39,124 -10,135 -74,17 -112,-30 -112,35 0,43 158,-28 158,67 0,66 9,91 -55,96 -41,3 -159,10 -179,-24 -26,-44 34,-77 -48,-77 -22,0 -17,14 -17,48 0,89 74,105 174,105 170,0 184,-30 184,-143 0,-47 -22,-72 -65,-81l28 -14c10,-6 14,-11 19,-21 8,-17 13,-44 13,-66 0,-109 -70,-115 -179,-115 -101,0 -168,21 -168,110z"/>
  </g>
  <path class="fil2" d="M22447 23225c102,-29 210,-75 313,-109 793,-256 1776,-378 2598,-271 436,56 1044,215 1308,596 32,47 49,81 75,133 50,101 75,228 65,355 -19,244 -168,447 -282,555 -168,160 -320,227 -545,298 -826,259 -2125,366 -2949,97 -454,-148 -794,-478 -570,-965 60,-130 162,-273 268,-357 50,-39 70,-55 57,-145 -170,85 -390,295 -486,465 -131,234 -150,513 -13,752 113,195 323,334 532,424 226,98 483,162 750,199 569,80 1216,50 1777,-44 286,-47 505,-110 770,-187 344,-101 646,-284 840,-589 266,-421 187,-959 -134,-1222 -211,-174 -128,-135 -424,-286 -669,-343 -1750,-339 -2478,-231 -312,46 -841,176 -1138,293 -85,33 -264,98 -332,142l-2 97z"/>
  <path class="fil2" d="M22687 23958c-146,-116 -133,-241 -102,-326 78,-212 428,-395 786,-367 51,4 139,14 191,36 7,-8 12,-18 18,-28 6,-12 6,-22 19,-31 17,15 118,171 118,180 -1,12 -72,9 -99,9 -40,-1 -83,6 -110,-4 4,-19 16,-33 21,-51 -41,-15 -117,-19 -156,-22 -154,-11 -345,52 -444,105 -53,29 -93,61 -130,95 -36,35 -94,118 -100,169 -6,57 -8,142 82,213 127,101 277,98 375,101l51 40c-19,8 -92,6 -118,5 -108,-1 -285,-31 -402,-124z"/>
  <g id="_2536636572224">
   <path class="fil5" d="M26148 23421c0,-67 55,-125 109,-125 39,0 73,4 103,37 71,76 24,205 -88,207 -65,2 -124,-52 -124,-119zm276 0c0,-49 -19,-81 -44,-107 -1,-1 -1,-2 -2,-2l-18 -16c-67,-53 -182,-36 -226,58 -76,164 147,303 259,153 15,-20 31,-52 31,-86z"/>
   <path class="fil5" d="M26265 23406l-23 0 0 -49 31 0c15,0 26,8 26,22 0,22 -13,27 -34,27zm-64 -61l0 151c0,16 12,12 41,12l0 -68c27,0 22,0 37,27 8,15 16,27 24,41l41 0c-1,-18 -28,-58 -37,-76 32,-22 30,-25 30,-64 0,-53 -79,-52 -118,-46 -15,3 -18,7 -18,23z"/>
  </g>
  <path class="fil6 str1" d="M-18 4941l0 -4905 49993 0 0 6083c-16416,-2253 -33184,-3033 -49993,-1178z"/>
  <path class="fil7 str2" d="M-18 4948l0 -759c16809,-1855 33577,-1075 49993,1179l0 749c-16375,-2219 -33238,-3042 -49993,-1169z"/>
 </g>
</svg>
