<?xml version="1.0" encoding="UTF-8"?>
<!DOCTYPE svg PUBLIC "-//W3C//DTD SVG 1.1//EN" "http://www.w3.org/Graphics/SVG/1.1/DTD/svg11.dtd">
<!-- Creator: CorelDRAW X7 -->
<svg xmlns="http://www.w3.org/2000/svg" xml:space="preserve" width="500mm" height="282mm" version="1.1" style="shape-rendering:geometricPrecision; text-rendering:geometricPrecision; image-rendering:optimizeQuality; fill-rule:evenodd; clip-rule:evenodd"
viewBox="0 0 50000 28200"
 xmlns:xlink="http://www.w3.org/1999/xlink">
 <defs>
  <style type="text/css">
   <![CDATA[
    .str0 {stroke:#373435;stroke-width:20}
    .str2 {stroke:#96D1EA;stroke-width:20}
    .str1 {stroke:#96D1EA;stroke-width:7.62}
    .fil0 {fill:none}
    .fil1 {fill:#EDEDEE}
    .fil3 {fill:#0098DA}
    .fil4 {fill:#0098DA}
    .fil2 {fill:#244656}
    .fil5 {fill:#2E4B73}
    .fil6 {fill:#96D1EA}
   ]]>
  </style>
    <clipPath id="id0">
     <path d="M34450 11459l2200 0 0 2137 -2200 0 0 -2137z"/>
    </clipPath>
   <clipPath id="id1">
    <path d="M38147 13065l2097 0 0 860 -2097 0 0 -860z"/>
   </clipPath>
 </defs>
 <g id="Capa_x0020_1">
  <metadata id="CorelCorpID_0Corel-Layer"/>
  <rect class="fil0 str0" x="-11" y="-4" width="49986" height="28106"/>
  <g id="_2536641228000">
   <g style="clip-path:url(#id0)">
    <image x="34450" y="11459" width="2200" height="2136" xlink:href="back360Fondo1Color_Images\back360Fondo1Color_ImgID1.png"/>
   </g>
  </g>
  <path class="fil1" d="M36069 12289c211,30 525,-93 480,-437 -381,-212 -557,-170 -613,-181 -55,-11 -839,-121 -1110,415 -271,536 27,530 31,634 3,104 -208,84 -225,421 -16,337 801,379 914,370 113,-8 904,-243 948,-558 45,-315 -215,-492 -403,-536 -188,-44 -232,-158 -22,-128z"/>
  <path class="fil2" d="M37075 12275c-17,-94 -20,-169 -117,-193 -281,-69 -199,362 -201,671 -2,370 249,232 281,192 63,-80 25,-423 34,-556l207 5c10,183 -83,618 168,605 224,-11 120,-294 150,-610l212 3c11,156 -44,509 66,581 75,49 187,19 222,-42 37,-66 20,-212 20,-295 0,-224 43,-424 -133,-522 -73,-41 -176,-47 -252,-3 -78,46 -91,107 -123,157l-14 17c-59,-113 -87,-209 -264,-207 -131,2 -223,100 -256,197zm1412 121l296 -9 2 300 -289 0 -9 -291zm294 346c11,80 2,158 63,202 54,40 151,30 199,-6 86,-67 55,-331 56,-464 1,-474 -221,-396 -652,-391 -162,2 -258,92 -271,248 -8,102 -11,401 13,489 34,121 174,218 332,168 135,-43 196,-176 260,-246zm1413 -353c119,-2 189,-37 183,-165 -6,-114 -78,-139 -188,-140 0,-133 22,-258 -79,-303 -113,-50 -213,17 -225,120 -22,191 -1,527 -1,735 0,129 -5,227 78,292 122,94 503,136 466,-113 -17,-113 -118,-128 -239,-128l5 -298zm-714 1c81,-2 238,16 299,-24 141,-91 45,-365 -181,-269 -81,34 -77,104 -123,180 -50,-72 7,-161 -109,-193 -281,-79 -201,378 -202,669 -2,373 261,222 284,193 59,-75 22,-431 32,-556z"/>
  <path class="fil3" d="M35665 12493c208,18 563,86 585,329 71,-34 135,-96 204,-139 86,18 99,97 175,113 -51,-314 -381,-428 -653,-474 -59,-11 -254,-31 -323,-8l12 179z"/>
  <path class="fil3" d="M34535 13246c72,203 311,284 495,321 458,92 1121,-55 1411,-362 41,-43 106,-122 115,-180 23,1 43,4 69,7 27,3 46,11 73,8 -11,-26 -197,-221 -214,-227 -23,-8 -84,51 -109,73 -37,32 -91,61 -99,91 38,10 76,11 113,20 -11,44 -77,108 -108,141 -125,132 -422,239 -611,280 -103,22 -200,30 -296,34 -98,4 -303,-11 -402,-43 -108,-36 -264,-98 -308,-222 -63,-175 86,-293 173,-374l-25 -71c-32,10 -97,70 -122,91 -100,88 -212,252 -155,413z"/>
  <g style="clip-path:url(#id1)">
   <image x="38147" y="13065" width="2097" height="861" xlink:href="back360Fondo1Color_Images\back360Fondo1Color_ImgID2.png"/>
  </g>
  <g id="_2536641224320">
   <path class="fil4" d="M39003 13724c0,-159 -54,-236 329,-201 100,9 74,80 74,225 0,76 -202,57 -275,57 -58,0 -128,-27 -128,-81zm-101 -347c0,409 -52,517 339,517 301,0 266,-121 266,-315 0,-158 -239,-144 -375,-137 -72,3 -85,22 -129,48 0,-270 -34,-251 303,-251 112,0 100,55 100,114l101 0c0,-66 9,-134 -70,-173 -72,-36 -190,-29 -278,-29 -189,0 -257,60 -257,226z"/>
   <path class="fil4" d="M39681 13676l0 -299c0,-155 89,-146 238,-146 37,0 94,8 118,17 27,11 56,45 56,80l0 388c0,92 -121,97 -201,97 -140,0 -211,-11 -211,-137zm-101 -299c0,380 -52,517 321,517 165,0 293,-39 293,-202l0 -339c0,-66 -29,-124 -70,-156 -61,-47 -182,-46 -269,-46 -186,0 -275,62 -275,226z"/>
   <path class="fil4" d="M38225 13336c0,67 -11,57 100,57 0,-119 -17,-162 184,-162 19,0 135,9 151,13 77,19 65,208 -17,227 -125,28 -189,-51 -189,59 0,73 265,-47 265,113 0,112 16,153 -92,162 -70,5 -269,18 -302,-40 -44,-75 58,-130 -82,-130 -37,0 -28,23 -28,81 0,149 125,178 294,178 286,0 311,-52 311,-243 0,-79 -37,-122 -110,-137l48 -22c16,-11 23,-19 31,-37 13,-28 22,-74 22,-111 0,-185 -119,-193 -302,-193 -170,0 -284,35 -284,185z"/>
  </g>
  <path class="fil2" d="M34404 11561c172,-50 354,-128 529,-184 1340,-433 3000,-639 4388,-459 736,96 1764,364 2209,1008 54,78 83,136 127,225 85,170 127,385 110,599 -32,411 -284,755 -476,937 -284,270 -541,384 -921,503 -1395,437 -3590,619 -4981,165 -767,-251 -1341,-808 -963,-1630 101,-221 275,-462 453,-603 84,-67 118,-93 96,-246 -287,143 -658,498 -820,786 -222,394 -254,866 -22,1270 190,329 545,564 898,717 381,164 816,272 1266,336 962,134 2055,83 3003,-74 482,-81 853,-187 1299,-317 582,-171 1092,-479 1419,-996 450,-710 316,-1618 -225,-2063 -356,-293 -217,-228 -717,-484 -1129,-578 -2955,-571 -4186,-389 -527,78 -1420,298 -1921,495 -143,56 -446,166 -562,240l-3 164z"/>
  <path class="fil2" d="M34810 12799c-247,-197 -225,-408 -173,-551 132,-358 724,-667 1328,-620 86,6 235,24 322,62 13,-15 20,-31 30,-49 12,-20 12,-37 32,-52 30,26 201,289 200,304 -2,20 -121,15 -167,15 -67,-1 -139,11 -186,-6 7,-32 27,-56 36,-87 -69,-25 -198,-32 -264,-36 -259,-20 -583,87 -749,176 -91,49 -158,104 -219,162 -62,58 -160,198 -170,285 -11,95 -13,240 139,360 214,170 467,164 633,170l87 68c-33,13 -156,9 -201,9 -183,-2 -481,-54 -678,-210z"/>
  <g id="_2536641225408">
   <path class="fil5" d="M40655 11891c0,-113 93,-210 185,-210 66,0 124,7 174,62 119,129 40,346 -149,350 -110,3 -210,-88 -210,-202zm466 0c0,-83 -32,-136 -74,-181 -1,-1 -2,-2 -3,-3l-30 -27c-114,-89 -308,-61 -382,99 -129,277 249,510 437,258 25,-33 52,-89 52,-146z"/>
   <path class="fil5" d="M40853 11866l-38 0 0 -83 51 0c26,0 45,14 45,38 0,36 -23,45 -58,45zm-108 -102l0 255c0,26 20,19 70,19l0 -115c46,0 36,0 62,47 13,25 27,44 40,68l70 0c-2,-30 -48,-97 -64,-127 56,-37 51,-44 51,-109 0,-90 -133,-88 -198,-77 -25,4 -31,10 -31,39z"/>
  </g>
  <g id="_2536799276400">
   <path class="fil6 str1" d="M49940 23886l0 -933c-16791,-2280 -33542,-1321 -49941,1449l0 922c16358,-2729 33204,-3740 49941,-1438z"/>
   <rect class="fil6 str2" x="11211" y="23420" width="38730" height="4601"/>
   <rect class="fil6 str2" x="-11" y="24859" width="12752" height="3162"/>
   <rect class="fil6 str2" x="2838" y="24183" width="9188" height="1563"/>
   <rect class="fil6 str2" x="7910" y="23420" width="4348" height="1440"/>
   <rect class="fil6 str2" x="15639" y="22428" width="29896" height="3962"/>
  </g>
  <rect class="fil6 str2" x="13915" y="22878" width="2871" height="860"/>
  <rect class="fil6 str2" x="44646" y="22970" width="2196" height="953"/>
 </g>
</svg>
